<svg xmlns="http://www.w3.org/2000/svg" width="1200" height="630" viewBox="0 0 1200 630">
  <rect width="1200" height="630" fill="#f8f2e8"/>
  <circle cx="986" cy="146" r="122" fill="#fff7ed"/>
  <ellipse cx="930" cy="506" rx="264" ry="128" fill="#eadfce"/>
  <path d="M 784 216 C 866 204 936 228 1012 294" fill="none" stroke="#c084fc" stroke-width="9" stroke-linecap="round" opacity="0.20"/>
  <path d="M 772 258 C 852 248 926 272 996 332" fill="none" stroke="#22c55e" stroke-width="7" stroke-linecap="round" opacity="0.18"/>
  <circle cx="742" cy="316" r="58" fill="#1f2937"/>
  <path d="M 664 394 C 688 356 720 336 762 336 C 828 336 874 390 874 462" fill="none" stroke="#1f2937" stroke-width="32" stroke-linecap="round"/>
  <path d="M 692 460 L 660 548" fill="none" stroke="#1f2937" stroke-width="26" stroke-linecap="round"/>
  <path d="M 824 460 L 852 548" fill="none" stroke="#1f2937" stroke-width="26" stroke-linecap="round"/>
  <text x="92" y="226" font-family="Georgia, serif" font-size="60" fill="#1f2937">Am thanh tu than</text>
  <text x="92" y="302" font-family="Georgia, serif" font-size="52" fill="#1f2937">khi mot tieng hat tro thanh</text>
  <text x="92" y="368" font-family="Georgia, serif" font-size="52" fill="#1f2937">cach tro ve</text>
  <text x="92" y="446" font-family="Arial, sans-serif" font-size="28" fill="#6b7280">Khong phai de hat cho hay. Ma de nghe ra noi minh dang nin lai.</text>
</svg>
