<svg width="760" height="380" viewBox="0 0 760 380" xmlns="http://www.w3.org/2000/svg" role="img" aria-label="Âm thanh tự thân — một người đang đứng yên và cất giọng rất nhẹ trong không gian yên tĩnh">
  <defs>
    <linearGradient id="bg" x1="0%" y1="0%" x2="100%" y2="100%">
      <stop offset="0%" stop-color="#f8f2e8"/>
      <stop offset="100%" stop-color="#f3ede3"/>
    </linearGradient>
    <linearGradient id="shadow" x1="0%" y1="0%" x2="0%" y2="100%">
      <stop offset="0%" stop-color="#1f2937" stop-opacity="0.12"/>
      <stop offset="100%" stop-color="#1f2937" stop-opacity="0"/>
    </linearGradient>
    <linearGradient id="accent" x1="0%" y1="0%" x2="100%" y2="100%">
      <stop offset="0%" stop-color="#d97706"/>
      <stop offset="100%" stop-color="#92400e"/>
    </linearGradient>
    <linearGradient id="wave" x1="0%" y1="0%" x2="100%" y2="0%">
      <stop offset="0%" stop-color="#c084fc" stop-opacity="0.12"/>
      <stop offset="100%" stop-color="#22c55e" stop-opacity="0.20"/>
    </linearGradient>
    <filter id="blur">
      <feGaussianBlur stdDeviation="18"/>
    </filter>
  </defs>

  <rect width="760" height="380" rx="24" fill="url(#bg)"/>
  <ellipse cx="585" cy="95" rx="120" ry="84" fill="#fff7ed" opacity="0.9"/>
  <ellipse cx="612" cy="286" rx="190" ry="74" fill="#eadfce" opacity="0.75"/>
  <ellipse cx="186" cy="86" rx="160" ry="92" fill="#f7efe4" opacity="0.9"/>

  <ellipse cx="360" cy="296" rx="210" ry="34" fill="url(#shadow)" filter="url(#blur)"/>

  <rect x="78" y="296" width="604" height="6" rx="3" fill="#d6ccb8" opacity="0.8"/>

  <path d="M 508 132 C 560 126 602 146 636 172" fill="none" stroke="url(#wave)" stroke-width="4" stroke-linecap="round"/>
  <path d="M 502 148 C 554 144 596 162 630 188" fill="none" stroke="url(#wave)" stroke-width="3" stroke-linecap="round"/>
  <path d="M 498 164 C 548 162 588 178 620 202" fill="none" stroke="url(#wave)" stroke-width="2.5" stroke-linecap="round"/>
  <circle cx="636" cy="172" r="5" fill="#c084fc" opacity="0.22"/>
  <circle cx="630" cy="188" r="4" fill="#22c55e" opacity="0.22"/>
  <circle cx="620" cy="202" r="3.5" fill="#c084fc" opacity="0.18"/>

  <circle cx="372" cy="112" r="30" fill="#1f2937"/>
  <path d="M 334 152 C 344 136 360 126 380 126 C 408 126 430 150 430 186 L 430 258 C 430 278 416 294 398 294 L 346 294 C 324 294 308 276 308 252 L 308 198 C 308 180 316 164 334 152 Z" fill="#1f2937"/>
  <path d="M 310 196 C 282 210 266 230 258 254" fill="none" stroke="#1f2937" stroke-width="13" stroke-linecap="round"/>
  <path d="M 430 194 C 456 206 476 224 490 246" fill="none" stroke="#1f2937" stroke-width="13" stroke-linecap="round"/>
  <path d="M 346 296 L 330 344" fill="none" stroke="#1f2937" stroke-width="15" stroke-linecap="round"/>
  <path d="M 394 296 L 408 344" fill="none" stroke="#1f2937" stroke-width="15" stroke-linecap="round"/>

  <circle cx="452" cy="184" r="8" fill="url(#accent)"/>
  <circle cx="466" cy="172" r="5" fill="#f59e0b" opacity="0.65"/>
  <circle cx="474" cy="196" r="4" fill="#f59e0b" opacity="0.42"/>

  <path d="M 86 238 C 132 210 178 198 226 200" fill="none" stroke="#c084fc" stroke-width="3" stroke-linecap="round" opacity="0.18"/>
  <path d="M 94 260 C 144 236 190 228 236 232" fill="none" stroke="#22c55e" stroke-width="2.5" stroke-linecap="round" opacity="0.14"/>

  <text x="76" y="82" font-family="Georgia, serif" font-size="28" fill="#1f2937">am thanh tu than</text>
  <text x="76" y="112" font-family="ui-sans-serif, sans-serif" font-size="13" letter-spacing="1.4" fill="#6b7280">mot tieng hat rat nho cung co the la diem bat dau</text>
</svg>
