<svg xmlns="http://www.w3.org/2000/svg" width="1600" height="900" viewBox="0 0 1600 900" fill="none">
  <rect width="1600" height="900" fill="#F4EFE6"/>
  <circle cx="620" cy="450" r="210" stroke="#1F2937" stroke-width="3" opacity="0.28"/>
  <circle cx="620" cy="450" r="128" stroke="#1F2937" stroke-width="2" opacity="0.16"/>
  <path d="M620 240C710 240 786 297 817 376" stroke="#111827" stroke-width="6" stroke-linecap="round" opacity="0.8"/>
  <path d="M817 376L792 361" stroke="#111827" stroke-width="6" stroke-linecap="round"/>
  <path d="M817 376L823 347" stroke="#111827" stroke-width="6" stroke-linecap="round"/>
  <path d="M620 660C530 660 454 603 423 524" stroke="#111827" stroke-width="6" stroke-linecap="round" opacity="0.8"/>
  <path d="M423 524L447 539" stroke="#111827" stroke-width="6" stroke-linecap="round"/>
  <path d="M423 524L417 553" stroke="#111827" stroke-width="6" stroke-linecap="round"/>
  <path d="M864 440C934 441 1006 420 1080 362C1137 316 1196 241 1266 180" stroke="#A16207" stroke-width="5" stroke-linecap="round"/>
  <circle cx="1266" cy="180" r="36" fill="#C58B31" fill-opacity="0.18" stroke="#A16207" stroke-width="4"/>
  <circle cx="1266" cy="180" r="12" fill="#A16207"/>
  <path d="M1008 484C1074 502 1128 553 1187 628" stroke="#9A3412" stroke-width="4" stroke-linecap="round" opacity="0.4"/>
</svg>
