<?xml version="1.0" encoding="UTF-8"?>
<svg width="1400" height="900" viewBox="0 0 1400 900" xmlns="http://www.w3.org/2000/svg" role="img" aria-labelledby="title-41">
  <title id="title-41">nhung-vong-lap-ban-chua-goi-ten</title>
  <defs>
    <linearGradient id="bg-41" x1="0%" y1="0%" x2="100%" y2="100%">
      <stop offset="0%" stop-color="#f4f4f6"/>
      <stop offset="50%" stop-color="#d8e2dc"/>
      <stop offset="100%" stop-color="#9ac8d8"/>
    </linearGradient>
  </defs>
  <rect width="1400" height="900" fill="url(#bg-41)"/>
  <g fill="none" stroke="rgba(30, 41, 59, 0.35)" stroke-width="2">
    <circle cx="240" cy="160" r="220" opacity="0.25"/>
    <circle cx="1160" cy="760" r="180" opacity="0.18"/>
    <path d="M180 720 C260 640, 380 720, 460 640 S700 600, 820 670"/>
    <path d="M680 240 C760 220, 820 260, 900 240 C980 220, 1030 260, 1120 250"/>
    <path d="M120 420 C220 430, 300 380, 420 400 C560 420, 620 360, 700 390"/>
  </g>
  <g font-family="Arial, Helvetica, sans-serif" fill="#111827">
    <text x="96" y="150" font-size="56" font-weight="700">nhung vong lap ban chua goi</text>
    <text x="96" y="225" font-size="36" font-weight="500" opacity="0.8">ten</text>
    <text x="96" y="830" font-size="22" fill="#334155" opacity="0.6">Nguyen Lan Anh — Bài viết</text>
  </g>
</svg>
